<svg width="373" height="44" viewBox="0 0 373 44" xmlns="http://www.w3.org/2000/svg">
    <defs>
        <linearGradient x1="5.9%" y1="48.084%" x2="85.916%" y2="36.125%" id="6ic6vi97ra">
            <stop stop-color="#FFD12C" offset="0%"/>
            <stop stop-color="#FF5F90" offset="100%"/>
        </linearGradient>
        <linearGradient x1="74.752%" y1="74.391%" x2="0%" y2="74.391%" id="0qw29y7bjb">
            <stop stop-color="#FF7FE3" offset="0%"/>
            <stop stop-color="#E60000" offset="100%"/>
        </linearGradient>
        <linearGradient x1="92.342%" y1="105.2%" x2="32.011%" y2="15.3%" id="cedzselplc">
            <stop stop-color="#6B109F" offset="0%"/>
            <stop stop-color="#3BF2FF" offset="100%"/>
        </linearGradient>
    </defs>
    <g fill-rule="nonzero" fill="none">
        <path d="M31.078 23.256c-5.674 1.624-6.434 2.505-7.305 3.655l-.104.136c-.818 1.08-1.898 2.422-7.174 4.819C5.27 36.964-3.633 29.776 1.48 17.379 4.958 8.942 14.934-1.524 26.552.185c11.617 1.71 19.953 18.656 4.526 23.071z" fill="url(#6ic6vi97ra)" style="mix-blend-mode:multiply" transform="translate(159.116)"/>
        <path d="M13.64 25.161c-.58 4.054 3.257 11.517 14.272 8.267 5.398-1.593 5.877-3.611 6.243-5.688l.044-.254c.357-2.038.793-4.117 5.824-5.89l.32-.11C51.23 17.816 50.45 9.685 46.739 6.94l-4.372-3.583C38.138.067 31.3-.14 26.728 2.932 20.766 6.94 14.805 17.026 13.64 25.162z" fill="url(#0qw29y7bjb)" style="mix-blend-mode:multiply" transform="translate(159.116)"/>
        <path d="M32.872 41.252c1.97 4.695 3.026 2.593 4.407-.51l.242-.546c.51-1.148.94-5.109 3.859-8.184 4.118-4.338 11.425-6.748 9.25-10.35-2.176-3.604 5.037-6.765 0-12.045-3.454-3.62-18.015.675-25.07 7.144-8.365 7.669-3.837 13.05-1.118 14.566 4.114 3.029 6.924 6.337 8.43 9.925z" fill="url(#cedzselplc)" style="mix-blend-mode:multiply" transform="translate(159.116)"/>
        <path d="M7.33 32.714V20.73l4.167 11.984h4.031l4.14-11.957v11.957h4.658v-19.12h-5.665l-5.094 13.319-5.202-13.32H2.672v19.121H7.33zm29.716 0 1.199-3.513h7.218l1.198 3.513h4.958l-7.055-19.12h-5.366l-7.055 19.12h4.903zm7.218-7.054h-4.82l2.423-7.082 2.397 7.082zm22.254 7.245c1.434 0 2.656-.254 3.663-.763 1.008-.508 1.77-1.19 2.288-2.043a5.31 5.31 0 0 0 .777-2.805c0-1.253-.282-2.27-.845-3.05-.563-.782-1.234-1.376-2.015-1.785-.781-.408-1.789-.822-3.024-1.24a33.398 33.398 0 0 1-1.96-.762c-.455-.2-.832-.458-1.131-.776-.3-.318-.45-.704-.45-1.158 0-.563.168-.99.504-1.28.336-.29.777-.436 1.321-.436.636 0 1.14.186 1.512.559.372.372.604.876.695 1.511h5.039c-.164-1.78-.877-3.177-2.139-4.194-1.262-1.017-2.964-1.526-5.107-1.526-1.325 0-2.501.223-3.527.668-1.026.445-1.83 1.085-2.41 1.92-.582.835-.872 1.825-.872 2.969 0 1.235.277 2.238.83 3.01.554.771 1.217 1.353 1.989 1.743.772.39 1.766.794 2.982 1.212.836.29 1.49.54 1.962.75.472.208.867.476 1.184.803.318.326.477.735.477 1.225 0 .545-.172.98-.517 1.308-.345.327-.818.49-1.417.49-.69 0-1.257-.209-1.702-.626-.445-.418-.704-.99-.776-1.716H58.89c.127 1.888.89 3.359 2.288 4.412 1.398 1.053 3.178 1.58 5.339 1.58zm23.915-.19V17.16h5.23v-3.704h-15.09v3.704h5.175v15.553h4.685zm25.168 0v-3.732h-7.327v-4.277h6.51v-3.513h-6.51V17.16h7.327v-3.704h-11.985v19.257h11.985zm13.292 0v-7.273h1.062l4.168 7.272h5.148l-4.576-7.572c1.47-.363 2.592-1.035 3.364-2.016.772-.98 1.157-2.17 1.157-3.568 0-1.18-.263-2.229-.79-3.146-.526-.917-1.316-1.639-2.37-2.165-1.052-.527-2.342-.79-3.867-.79h-7.954v19.257h4.658zm2.887-10.46h-2.887v-4.876h2.887c.908 0 1.585.218 2.03.654.445.436.667 1.035.667 1.798 0 .799-.218 1.402-.654 1.811-.436.409-1.117.613-2.043.613zM236.036 32.905c1.434 0 2.656-.254 3.663-.763 1.008-.508 1.77-1.19 2.288-2.043a5.31 5.31 0 0 0 .777-2.805c0-1.253-.282-2.27-.845-3.05-.563-.782-1.234-1.376-2.015-1.785-.781-.408-1.789-.822-3.024-1.24a33.398 33.398 0 0 1-1.96-.762c-.455-.2-.832-.458-1.131-.776-.3-.318-.45-.704-.45-1.158 0-.563.168-.99.504-1.28.336-.29.777-.436 1.321-.436.636 0 1.14.186 1.512.559.372.372.604.876.695 1.511h5.039c-.164-1.78-.877-3.177-2.139-4.194-1.262-1.017-2.964-1.526-5.107-1.526-1.325 0-2.501.223-3.527.668-1.026.445-1.83 1.085-2.41 1.92-.582.835-.872 1.825-.872 2.969 0 1.235.277 2.238.83 3.01.554.771 1.217 1.353 1.989 1.743.772.39 1.766.794 2.982 1.212.836.29 1.49.54 1.962.75.472.208.867.476 1.184.803.318.326.477.735.477 1.225 0 .545-.172.98-.517 1.308-.345.327-.818.49-1.417.49-.69 0-1.257-.209-1.702-.626-.445-.418-.704-.99-.776-1.716h-4.958c.127 1.888.89 3.359 2.288 4.412 1.398 1.053 3.178 1.58 5.339 1.58zm23.915-.19V17.16h5.23v-3.704h-15.09v3.704h5.175v15.553h4.685zm17.84 0v-7.273h1.063l4.168 7.272h5.148l-4.576-7.572c1.47-.363 2.592-1.035 3.364-2.016.771-.98 1.157-2.17 1.157-3.568 0-1.18-.263-2.229-.79-3.146-.526-.917-1.316-1.639-2.37-2.165-1.053-.527-2.342-.79-3.867-.79h-7.954v19.257h4.658zm2.888-10.46h-2.887v-4.876h2.887c.908 0 1.585.218 2.03.654.444.436.667 1.035.667 1.798 0 .799-.218 1.402-.654 1.811-.436.409-1.117.613-2.043.613zm27.756 10.46v-3.732h-7.327v-4.277h6.51v-3.513h-6.51V17.16h7.327v-3.704H296.45v19.257h11.985zm12.148 0 1.198-3.514H329l1.198 3.513h4.957l-7.054-19.12h-5.366l-7.055 19.12h4.903zm7.218-7.055h-4.821l2.424-7.082 2.397 7.082zm19.802 7.054V20.73l4.168 11.984h4.03l4.141-11.957v11.957h4.658v-19.12h-5.666l-5.093 13.319-5.203-13.32h-5.693v19.121h4.658z" fill="#000"/>
    </g>
</svg>
