<svg width="33" height="41" viewBox="0 0 33 41" xmlns="http://www.w3.org/2000/svg" xmlns:xlink="http://www.w3.org/1999/xlink">
    <defs>
        <filter x="-41.3%" y="-26.2%" width="182.6%" height="190.5%" filterUnits="objectBoundingBox" id="wanyifi1ka">
            <feOffset dy="4" in="SourceAlpha" result="shadowOffsetOuter1"/>
            <feGaussianBlur stdDeviation="2.5" in="shadowOffsetOuter1" result="shadowBlurOuter1"/>
            <feColorMatrix values="0 0 0 0 0 0 0 0 0 0 0 0 0 0 0 0 0 0 0.15 0" in="shadowBlurOuter1"/>
        </filter>
        <path d="M193.494 11c5.043-.005 9.5 3.258 10.991 8.045a11.384 11.384 0 0 1-4.497 12.808.825.825 0 0 1-.46.147.823.823 0 0 1-.68-.359.813.813 0 0 1 .213-1.134 9.758 9.758 0 0 0 3.845-10.973c-1.277-4.1-5.093-6.895-9.412-6.895-4.32 0-8.135 2.795-9.412 6.895a9.758 9.758 0 0 0 3.845 10.973c.326.27.391.742.15 1.09a.824.824 0 0 1-1.077.248 11.384 11.384 0 0 1-4.485-12.801c1.49-4.782 5.94-8.043 10.979-8.044zm-7.2 8.389c1.449-3.405 5.111-5.324 8.757-4.587 3.645.736 6.264 3.923 6.26 7.62a7.753 7.753 0 0 1-3.383 6.404.891.891 0 0 1-.468.14.823.823 0 0 1-.682-.352.813.813 0 0 1 .189-1.134 6.115 6.115 0 0 0 2.409-6.876 6.17 6.17 0 0 0-5.898-4.32 6.17 6.17 0 0 0-5.898 4.32 6.115 6.115 0 0 0 2.408 6.876.816.816 0 0 1 .222 1.134.824.824 0 0 1-1.125.212 7.739 7.739 0 0 1-2.79-9.437zm7.2-.434c1.927 0 3.49 1.552 3.49 3.467s-1.563 3.467-3.49 3.467c-1.927 0-3.49-1.552-3.49-3.467s1.563-3.467 3.49-3.467z" id="h2xj38wdtb"/>
    </defs>
    <g transform="translate(-177)" fill="#000" fill-rule="evenodd">
        <use filter="url(#wanyifi1ka)" xlink:href="#h2xj38wdtb"/>
        <use xlink:href="#h2xj38wdtb"/>
    </g>
</svg>
